<?xml version="1.0" standalone="no"?>
<!DOCTYPE svg PUBLIC "-//W3C//DTD SVG 20001102//EN"
"http://www.w3.org/TR/2000/CR-SVG-20001102/DTD/svg-20001102.dtd">
<svg width="768" height="201"
	xmlns:sodipodi="http://sodipodi.sourceforge.net/DTD/sodipodi-0.dtd">
<desc>wmf2svg</desc>
<polygon points="347.312592,1.484361 
	347.312592,26.281929 371.770874,26.281929 371.770874,1.484361 347.312592,1.484361 "
	style="fill-opacity:1.0; fill-rule:evenodd; fill:steelblue; stroke:none" />
<polygon points="347.312592,1.484361 
	371.770874,1.484361 371.770874,26.281929 347.312592,26.281929 "
	style="fill:none; stroke-width:2.948412; stroke-linecap:round; stroke-linejoin:round; stroke-dasharray:none; stroke:gainsboro" />
<polygon points="347.312592,26.281929 
	347.312592,51.079494 371.770874,51.079494 371.770874,26.281929 347.312592,26.281929 "
	style="fill-opacity:1.0; fill-rule:evenodd; fill:steelblue; stroke:none" />
<polygon points="347.312592,26.281929 
	371.770874,26.281929 371.770874,51.079494 347.312592,51.079494 "
	style="fill:none; stroke-width:2.948412; stroke-linecap:round; stroke-linejoin:round; stroke-dasharray:none; stroke:gainsboro" />
<polygon points="347.312592,51.079494 
	347.312592,75.877060 371.770874,75.877060 371.770874,51.079494 347.312592,51.079494 "
	style="fill-opacity:1.0; fill-rule:evenodd; fill:steelblue; stroke:none" />
<polygon points="347.312592,51.079494 
	371.770874,51.079494 371.770874,75.877060 347.312592,75.877060 "
	style="fill:none; stroke-width:2.948412; stroke-linecap:round; stroke-linejoin:round; stroke-dasharray:none; stroke:gainsboro" />
<polygon points="347.312592,75.877060 
	347.312592,100.500000 371.770874,100.500000 371.770874,75.877060 347.312592,75.877060 "
	style="fill-opacity:1.0; fill-rule:evenodd; fill:steelblue; stroke:none" />
<polygon points="347.312592,75.877060 
	371.770874,75.877060 371.770874,100.500000 347.312592,100.500000 "
	style="fill:none; stroke-width:2.948412; stroke-linecap:round; stroke-linejoin:round; stroke-dasharray:none; stroke:gainsboro" />
<polygon points="371.770874,125.297554 
	371.770874,150.095123 396.229126,150.095123 396.229126,125.297554 371.770874,125.297554 "
	style="fill-opacity:1.0; fill-rule:evenodd; fill:steelblue; stroke:none" />
<polygon points="371.770874,125.297554 
	396.229126,125.297554 396.229126,150.095123 371.770874,150.095123 "
	style="fill:none; stroke-width:2.948412; stroke-linecap:round; stroke-linejoin:round; stroke-dasharray:none; stroke:gainsboro" />
<polygon points="396.229126,125.297554 
	396.229126,150.095123 420.687408,150.095123 420.687408,125.297554 396.229126,125.297554 "
	style="fill-opacity:1.0; fill-rule:evenodd; fill:steelblue; stroke:none" />
<polygon points="396.229126,125.297554 
	420.687408,125.297554 420.687408,150.095123 396.229126,150.095123 "
	style="fill:none; stroke-width:2.948412; stroke-linecap:round; stroke-linejoin:round; stroke-dasharray:none; stroke:gainsboro" />
<polygon points="436.878082,51.079494 
	436.878082,75.877060 461.336334,75.877060 461.336334,51.079494 436.878082,51.079494 "
	style="fill-opacity:1.0; fill-rule:evenodd; fill:steelblue; stroke:none" />
<polygon points="436.878082,51.079494 
	461.336334,51.079494 461.336334,75.877060 436.878082,75.877060 "
	style="fill:none; stroke-width:2.948412; stroke-linecap:round; stroke-linejoin:round; stroke-dasharray:none; stroke:gainsboro" />
<polygon points="436.878082,75.877060 
	436.878082,100.500000 461.336334,100.500000 461.336334,75.877060 436.878082,75.877060 "
	style="fill-opacity:1.0; fill-rule:evenodd; fill:steelblue; stroke:none" />
<polygon points="436.878082,75.877060 
	461.336334,75.877060 461.336334,100.500000 436.878082,100.500000 "
	style="fill:none; stroke-width:2.948412; stroke-linecap:round; stroke-linejoin:round; stroke-dasharray:none; stroke:gainsboro" />
<polygon points="461.336334,26.281929 
	461.336334,51.079494 485.794586,51.079494 485.794586,26.281929 461.336334,26.281929 "
	style="fill-opacity:1.0; fill-rule:evenodd; fill:steelblue; stroke:none" />
<polygon points="461.336334,26.281929 
	485.794586,26.281929 485.794586,51.079494 461.336334,51.079494 "
	style="fill:none; stroke-width:2.948412; stroke-linecap:round; stroke-linejoin:round; stroke-dasharray:none; stroke:gainsboro" />
<polygon points="485.794586,26.281929 
	485.794586,51.079494 510.080597,51.079494 510.080597,26.281929 485.794586,26.281929 "
	style="fill-opacity:1.0; fill-rule:evenodd; fill:steelblue; stroke:none" />
<polygon points="485.794586,26.281929 
	510.080597,26.281929 510.080597,51.079494 485.794586,51.079494 "
	style="fill:none; stroke-width:2.948412; stroke-linecap:round; stroke-linejoin:round; stroke-dasharray:none; stroke:gainsboro" />
<polygon points="461.336334,125.297554 
	461.336334,150.095123 485.794586,150.095123 485.794586,125.297554 461.336334,125.297554 "
	style="fill-opacity:1.0; fill-rule:evenodd; fill:steelblue; stroke:none" />
<polygon points="461.336334,125.297554 
	485.794586,125.297554 485.794586,150.095123 461.336334,150.095123 "
	style="fill:none; stroke-width:2.948412; stroke-linecap:round; stroke-linejoin:round; stroke-dasharray:none; stroke:gainsboro" />
<polygon points="485.794586,125.297554 
	485.794586,150.095123 510.080597,150.095123 510.080597,125.297554 485.794586,125.297554 "
	style="fill-opacity:1.0; fill-rule:evenodd; fill:steelblue; stroke:none" />
<polygon points="485.794586,125.297554 
	510.080597,125.297554 510.080597,150.095123 485.794586,150.095123 "
	style="fill:none; stroke-width:2.948412; stroke-linecap:round; stroke-linejoin:round; stroke-dasharray:none; stroke:gainsboro" />
<polygon points="510.080597,51.079494 
	510.080597,75.877060 534.538879,75.877060 534.538879,51.079494 510.080597,51.079494 "
	style="fill-opacity:1.0; fill-rule:evenodd; fill:steelblue; stroke:none" />
<polygon points="510.080597,51.079494 
	534.538879,51.079494 534.538879,75.877060 510.080597,75.877060 "
	style="fill:none; stroke-width:2.948412; stroke-linecap:round; stroke-linejoin:round; stroke-dasharray:none; stroke:gainsboro" />
<polygon points="510.080597,77.798004 
	510.080597,102.595566 534.538879,102.595566 534.538879,77.798004 510.080597,77.798004 "
	style="fill-opacity:1.0; fill-rule:evenodd; fill:steelblue; stroke:none" />
<polygon points="510.080597,77.798004 
	534.538879,77.798004 534.538879,102.595566 510.080597,102.595566 "
	style="fill:none; stroke-width:2.948412; stroke-linecap:round; stroke-linejoin:round; stroke-dasharray:none; stroke:gainsboro" />
<polygon points="550.901794,51.079494 
	550.901794,75.877060 575.187866,75.877060 575.187866,51.079494 550.901794,51.079494 "
	style="fill-opacity:1.0; fill-rule:evenodd; fill:steelblue; stroke:none" />
<polygon points="550.901794,51.079494 
	575.187866,51.079494 575.187866,75.877060 550.901794,75.877060 "
	style="fill:none; stroke-width:2.948412; stroke-linecap:round; stroke-linejoin:round; stroke-dasharray:none; stroke:gainsboro" />
<polygon points="550.901794,75.877060 
	550.901794,100.500000 575.187866,100.500000 575.187866,75.877060 550.901794,75.877060 "
	style="fill-opacity:1.0; fill-rule:evenodd; fill:steelblue; stroke:none" />
<polygon points="550.901794,75.877060 
	575.187866,75.877060 575.187866,100.500000 550.901794,100.500000 "
	style="fill:none; stroke-width:2.948412; stroke-linecap:round; stroke-linejoin:round; stroke-dasharray:none; stroke:gainsboro" />
<polygon points="575.187866,26.281929 
	575.187866,51.079494 599.646118,51.079494 599.646118,26.281929 575.187866,26.281929 "
	style="fill-opacity:1.0; fill-rule:evenodd; fill:steelblue; stroke:none" />
<polygon points="575.187866,26.281929 
	599.646118,26.281929 599.646118,51.079494 575.187866,51.079494 "
	style="fill:none; stroke-width:2.948412; stroke-linecap:round; stroke-linejoin:round; stroke-dasharray:none; stroke:gainsboro" />
<polygon points="599.646118,26.281929 
	599.646118,51.079494 624.104309,51.079494 624.104309,26.281929 599.646118,26.281929 "
	style="fill-opacity:1.0; fill-rule:evenodd; fill:steelblue; stroke:none" />
<polygon points="599.646118,26.281929 
	624.104309,26.281929 624.104309,51.079494 599.646118,51.079494 "
	style="fill:none; stroke-width:2.948412; stroke-linecap:round; stroke-linejoin:round; stroke-dasharray:none; stroke:gainsboro" />
<polygon points="575.187866,125.297554 
	575.187866,150.095123 599.646118,150.095123 599.646118,125.297554 575.187866,125.297554 "
	style="fill-opacity:1.0; fill-rule:evenodd; fill:steelblue; stroke:none" />
<polygon points="575.187866,125.297554 
	599.646118,125.297554 599.646118,150.095123 575.187866,150.095123 "
	style="fill:none; stroke-width:2.948412; stroke-linecap:round; stroke-linejoin:round; stroke-dasharray:none; stroke:gainsboro" />
<polygon points="599.646118,125.297554 
	599.646118,150.095123 624.104309,150.095123 624.104309,125.297554 599.646118,125.297554 "
	style="fill-opacity:1.0; fill-rule:evenodd; fill:steelblue; stroke:none" />
<polygon points="599.646118,125.297554 
	624.104309,125.297554 624.104309,150.095123 599.646118,150.095123 "
	style="fill:none; stroke-width:2.948412; stroke-linecap:round; stroke-linejoin:round; stroke-dasharray:none; stroke:gainsboro" />
<polygon points="624.104309,51.079494 
	624.104309,75.877060 648.562622,75.877060 648.562622,51.079494 624.104309,51.079494 "
	style="fill-opacity:1.0; fill-rule:evenodd; fill:steelblue; stroke:none" />
<polygon points="624.104309,51.079494 
	648.562622,51.079494 648.562622,75.877060 624.104309,75.877060 "
	style="fill:none; stroke-width:2.948412; stroke-linecap:round; stroke-linejoin:round; stroke-dasharray:none; stroke:gainsboro" />
<polygon points="624.104309,77.798004 
	624.104309,102.595566 648.562622,102.595566 648.562622,77.798004 624.104309,77.798004 "
	style="fill-opacity:1.0; fill-rule:evenodd; fill:steelblue; stroke:none" />
<polygon points="624.104309,77.798004 
	648.562622,77.798004 648.562622,102.595566 624.104309,102.595566 "
	style="fill:none; stroke-width:2.948412; stroke-linecap:round; stroke-linejoin:round; stroke-dasharray:none; stroke:gainsboro" />
<polygon points="624.104309,125.297554 
	624.104309,150.095123 648.562622,150.095123 648.562622,125.297554 624.104309,125.297554 "
	style="fill-opacity:1.0; fill-rule:evenodd; fill:steelblue; stroke:none" />
<polygon points="624.104309,125.297554 
	648.562622,125.297554 648.562622,150.095123 624.104309,150.095123 "
	style="fill:none; stroke-width:2.948412; stroke-linecap:round; stroke-linejoin:round; stroke-dasharray:none; stroke:gainsboro" />
<polygon points="624.104309,150.095123 
	624.104309,174.892700 648.562622,174.892700 648.562622,150.095123 624.104309,150.095123 "
	style="fill-opacity:1.0; fill-rule:evenodd; fill:steelblue; stroke:none" />
<polygon points="624.104309,150.095123 
	648.562622,150.095123 648.562622,174.892700 624.104309,174.892700 "
	style="fill:none; stroke-width:2.948412; stroke-linecap:round; stroke-linejoin:round; stroke-dasharray:none; stroke:gainsboro" />
<polygon points="624.104309,174.892700 
	624.104309,199.515640 648.562622,199.515640 648.562622,174.892700 624.104309,174.892700 "
	style="fill-opacity:1.0; fill-rule:evenodd; fill:steelblue; stroke:none" />
<polygon points="624.104309,174.892700 
	648.562622,174.892700 648.562622,199.515640 624.104309,199.515640 "
	style="fill:none; stroke-width:2.948412; stroke-linecap:round; stroke-linejoin:round; stroke-dasharray:none; stroke:gainsboro" />
<polygon points="233.461105,3.579930 
	233.461105,28.202866 257.919373,28.202866 257.919373,3.579930 233.461105,3.579930 "
	style="fill-opacity:1.0; fill-rule:evenodd; fill:steelblue; stroke:none" />
<polygon points="233.461105,3.579930 
	257.919373,3.579930 257.919373,28.202866 233.461105,28.202866 "
	style="fill:none; stroke-width:2.948412; stroke-linecap:round; stroke-linejoin:round; stroke-dasharray:none; stroke:gainsboro" />
<polygon points="233.461105,28.202866 
	233.461105,53.000431 257.919373,53.000431 257.919373,28.202866 233.461105,28.202866 "
	style="fill-opacity:1.0; fill-rule:evenodd; fill:steelblue; stroke:none" />
<polygon points="233.461105,28.202866 
	257.919373,28.202866 257.919373,53.000431 233.461105,53.000431 "
	style="fill:none; stroke-width:2.948412; stroke-linecap:round; stroke-linejoin:round; stroke-dasharray:none; stroke:gainsboro" />
<polygon points="233.461105,53.000431 
	233.461105,77.798004 257.919373,77.798004 257.919373,53.000431 233.461105,53.000431 "
	style="fill-opacity:1.0; fill-rule:evenodd; fill:steelblue; stroke:none" />
<polygon points="233.461105,53.000431 
	257.919373,53.000431 257.919373,77.798004 233.461105,77.798004 "
	style="fill:none; stroke-width:2.948412; stroke-linecap:round; stroke-linejoin:round; stroke-dasharray:none; stroke:gainsboro" />
<polygon points="233.461105,77.798004 
	233.461105,102.595566 257.919373,102.595566 257.919373,77.798004 233.461105,77.798004 "
	style="fill-opacity:1.0; fill-rule:evenodd; fill:steelblue; stroke:none" />
<polygon points="233.461105,77.798004 
	257.919373,77.798004 257.919373,102.595566 233.461105,102.595566 "
	style="fill:none; stroke-width:2.948412; stroke-linecap:round; stroke-linejoin:round; stroke-dasharray:none; stroke:gainsboro" />
<polygon points="233.461105,127.218498 
	233.461105,152.016068 257.919373,152.016068 257.919373,127.218498 233.461105,127.218498 "
	style="fill-opacity:1.0; fill-rule:evenodd; fill:steelblue; stroke:none" />
<polygon points="233.461105,127.218498 
	257.919373,127.218498 257.919373,152.016068 233.461105,152.016068 "
	style="fill:none; stroke-width:2.948412; stroke-linecap:round; stroke-linejoin:round; stroke-dasharray:none; stroke:gainsboro" />
<polygon points="257.919373,3.579930 
	257.919373,28.202866 282.205383,28.202866 282.205383,3.579930 257.919373,3.579930 "
	style="fill-opacity:1.0; fill-rule:evenodd; fill:steelblue; stroke:none" />
<polygon points="257.919373,3.579930 
	282.205383,3.579930 282.205383,28.202866 257.919373,28.202866 "
	style="fill:none; stroke-width:2.948412; stroke-linecap:round; stroke-linejoin:round; stroke-dasharray:none; stroke:gainsboro" />
<polygon points="282.205383,3.579930 
	282.205383,28.202866 306.663635,28.202866 306.663635,3.579930 282.205383,3.579930 "
	style="fill-opacity:1.0; fill-rule:evenodd; fill:steelblue; stroke:none" />
<polygon points="282.205383,3.579930 
	306.663635,3.579930 306.663635,28.202866 282.205383,28.202866 "
	style="fill:none; stroke-width:2.948412; stroke-linecap:round; stroke-linejoin:round; stroke-dasharray:none; stroke:gainsboro" />
<polygon points="257.919373,127.218498 
	257.919373,152.016068 282.205383,152.016068 282.205383,127.218498 257.919373,127.218498 "
	style="fill-opacity:1.0; fill-rule:evenodd; fill:steelblue; stroke:none" />
<polygon points="257.919373,127.218498 
	282.205383,127.218498 282.205383,152.016068 257.919373,152.016068 "
	style="fill:none; stroke-width:2.948412; stroke-linecap:round; stroke-linejoin:round; stroke-dasharray:none; stroke:gainsboro" />
<polygon points="282.205383,127.218498 
	282.205383,152.016068 306.663635,152.016068 306.663635,127.218498 282.205383,127.218498 "
	style="fill-opacity:1.0; fill-rule:evenodd; fill:steelblue; stroke:none" />
<polygon points="282.205383,127.218498 
	306.663635,127.218498 306.663635,152.016068 282.205383,152.016068 "
	style="fill:none; stroke-width:2.948412; stroke-linecap:round; stroke-linejoin:round; stroke-dasharray:none; stroke:gainsboro" />
<polygon points="306.663635,28.202866 
	306.663635,53.000431 331.121918,53.000431 331.121918,28.202866 306.663635,28.202866 "
	style="fill-opacity:1.0; fill-rule:evenodd; fill:steelblue; stroke:none" />
<polygon points="306.663635,28.202866 
	331.121918,28.202866 331.121918,53.000431 306.663635,53.000431 "
	style="fill:none; stroke-width:2.948412; stroke-linecap:round; stroke-linejoin:round; stroke-dasharray:none; stroke:gainsboro" />
<polygon points="306.663635,79.718941 
	306.663635,104.516510 331.121918,104.516510 331.121918,79.718941 306.663635,79.718941 "
	style="fill-opacity:1.0; fill-rule:evenodd; fill:steelblue; stroke:none" />
<polygon points="306.663635,79.718941 
	331.121918,79.718941 331.121918,104.516510 306.663635,104.516510 "
	style="fill:none; stroke-width:2.948412; stroke-linecap:round; stroke-linejoin:round; stroke-dasharray:none; stroke:gainsboro" />
<polygon points="257.919373,53.000431 
	257.919373,77.798004 282.205383,77.798004 282.205383,53.000431 257.919373,53.000431 "
	style="fill-opacity:1.0; fill-rule:evenodd; fill:steelblue; stroke:none" />
<polygon points="257.919373,53.000431 
	282.205383,53.000431 282.205383,77.798004 257.919373,77.798004 "
	style="fill:none; stroke-width:2.948412; stroke-linecap:round; stroke-linejoin:round; stroke-dasharray:none; stroke:gainsboro" />
<polygon points="282.205383,53.000431 
	282.205383,77.798004 306.663635,77.798004 306.663635,53.000431 282.205383,53.000431 "
	style="fill-opacity:1.0; fill-rule:evenodd; fill:steelblue; stroke:none" />
<polygon points="282.205383,53.000431 
	306.663635,53.000431 306.663635,77.798004 282.205383,77.798004 "
	style="fill:none; stroke-width:2.948412; stroke-linecap:round; stroke-linejoin:round; stroke-dasharray:none; stroke:gainsboro" />
<polygon points="347.312592,100.500000 
	347.312592,125.297554 371.770874,125.297554 371.770874,100.500000 347.312592,100.500000 "
	style="fill-opacity:1.0; fill-rule:evenodd; fill:steelblue; stroke:none" />
<polygon points="347.312592,100.500000 
	371.770874,100.500000 371.770874,125.297554 347.312592,125.297554 "
	style="fill:none; stroke-width:2.948412; stroke-linecap:round; stroke-linejoin:round; stroke-dasharray:none; stroke:gainsboro" />
<polygon points="436.878082,100.500000 
	436.878082,125.297554 461.336334,125.297554 461.336334,100.500000 436.878082,100.500000 "
	style="fill-opacity:1.0; fill-rule:evenodd; fill:steelblue; stroke:none" />
<polygon points="436.878082,100.500000 
	461.336334,100.500000 461.336334,125.297554 436.878082,125.297554 "
	style="fill:none; stroke-width:2.948412; stroke-linecap:round; stroke-linejoin:round; stroke-dasharray:none; stroke:gainsboro" />
<polygon points="510.080597,102.595566 
	510.080597,127.218498 534.538879,127.218498 534.538879,102.595566 510.080597,102.595566 "
	style="fill-opacity:1.0; fill-rule:evenodd; fill:steelblue; stroke:none" />
<polygon points="510.080597,102.595566 
	534.538879,102.595566 534.538879,127.218498 510.080597,127.218498 "
	style="fill:none; stroke-width:2.948412; stroke-linecap:round; stroke-linejoin:round; stroke-dasharray:none; stroke:gainsboro" />
<polygon points="550.901794,100.500000 
	550.901794,125.297554 575.187866,125.297554 575.187866,100.500000 550.901794,100.500000 "
	style="fill-opacity:1.0; fill-rule:evenodd; fill:steelblue; stroke:none" />
<polygon points="550.901794,100.500000 
	575.187866,100.500000 575.187866,125.297554 550.901794,125.297554 "
	style="fill:none; stroke-width:2.948412; stroke-linecap:round; stroke-linejoin:round; stroke-dasharray:none; stroke:gainsboro" />
<polygon points="624.104309,102.595566 
	624.104309,127.393135 648.562622,127.393135 648.562622,102.595566 624.104309,102.595566 "
	style="fill-opacity:1.0; fill-rule:evenodd; fill:steelblue; stroke:none" />
<polygon points="624.104309,102.595566 
	648.562622,102.595566 648.562622,127.393135 624.104309,127.393135 "
	style="fill:none; stroke-width:2.948412; stroke-linecap:round; stroke-linejoin:round; stroke-dasharray:none; stroke:gainsboro" />
<polygon points="233.461105,102.595566 
	233.461105,127.218498 257.919373,127.218498 257.919373,102.595566 233.461105,102.595566 "
	style="fill-opacity:1.0; fill-rule:evenodd; fill:steelblue; stroke:none" />
<polygon points="233.461105,102.595566 
	257.919373,102.595566 257.919373,127.218498 233.461105,127.218498 "
	style="fill:none; stroke-width:2.948412; stroke-linecap:round; stroke-linejoin:round; stroke-dasharray:none; stroke:gainsboro" />
<polygon points="306.663635,104.516510 
	306.663635,129.314072 331.121918,129.314072 331.121918,104.516510 306.663635,104.516510 "
	style="fill-opacity:1.0; fill-rule:evenodd; fill:steelblue; stroke:none" />
<polygon points="306.663635,104.516510 
	331.121918,104.516510 331.121918,129.314072 306.663635,129.314072 "
	style="fill:none; stroke-width:2.948412; stroke-linecap:round; stroke-linejoin:round; stroke-dasharray:none; stroke:gainsboro" />
<polygon points="664.753296,51.079494 
	664.753296,75.877060 689.211548,75.877060 689.211548,51.079494 664.753296,51.079494 "
	style="fill-opacity:1.0; fill-rule:evenodd; fill:steelblue; stroke:none" />
<polygon points="664.753296,51.079494 
	689.211548,51.079494 689.211548,75.877060 664.753296,75.877060 "
	style="fill:none; stroke-width:2.948412; stroke-linecap:round; stroke-linejoin:round; stroke-dasharray:none; stroke:gainsboro" />
<polygon points="689.211548,75.877060 
	689.211548,100.500000 713.669861,100.500000 713.669861,75.877060 689.211548,75.877060 "
	style="fill-opacity:1.0; fill-rule:evenodd; fill:steelblue; stroke:none" />
<polygon points="689.211548,75.877060 
	713.669861,75.877060 713.669861,100.500000 689.211548,100.500000 "
	style="fill:none; stroke-width:2.948412; stroke-linecap:round; stroke-linejoin:round; stroke-dasharray:none; stroke:gainsboro" />
<polygon points="689.211548,26.281929 
	689.211548,51.079494 713.669861,51.079494 713.669861,26.281929 689.211548,26.281929 "
	style="fill-opacity:1.0; fill-rule:evenodd; fill:steelblue; stroke:none" />
<polygon points="689.211548,26.281929 
	713.669861,26.281929 713.669861,51.079494 689.211548,51.079494 "
	style="fill:none; stroke-width:2.948412; stroke-linecap:round; stroke-linejoin:round; stroke-dasharray:none; stroke:gainsboro" />
<polygon points="713.669861,26.281929 
	713.669861,51.079494 737.955811,51.079494 737.955811,26.281929 713.669861,26.281929 "
	style="fill-opacity:1.0; fill-rule:evenodd; fill:steelblue; stroke:none" />
<polygon points="713.669861,26.281929 
	737.955811,26.281929 737.955811,51.079494 713.669861,51.079494 "
	style="fill:none; stroke-width:2.948412; stroke-linecap:round; stroke-linejoin:round; stroke-dasharray:none; stroke:gainsboro" />
<polygon points="689.211548,125.297554 
	689.211548,150.095123 713.669861,150.095123 713.669861,125.297554 689.211548,125.297554 "
	style="fill-opacity:1.0; fill-rule:evenodd; fill:steelblue; stroke:none" />
<polygon points="689.211548,125.297554 
	713.669861,125.297554 713.669861,150.095123 689.211548,150.095123 "
	style="fill:none; stroke-width:2.948412; stroke-linecap:round; stroke-linejoin:round; stroke-dasharray:none; stroke:gainsboro" />
<polygon points="713.669861,125.297554 
	713.669861,150.095123 737.955811,150.095123 737.955811,125.297554 713.669861,125.297554 "
	style="fill-opacity:1.0; fill-rule:evenodd; fill:steelblue; stroke:none" />
<polygon points="713.669861,125.297554 
	737.955811,125.297554 737.955811,150.095123 713.669861,150.095123 "
	style="fill:none; stroke-width:2.948412; stroke-linecap:round; stroke-linejoin:round; stroke-dasharray:none; stroke:gainsboro" />
<polygon points="737.955811,101.547783 
	737.955811,126.345345 762.414124,126.345345 762.414124,101.547783 737.955811,101.547783 "
	style="fill-opacity:1.0; fill-rule:evenodd; fill:steelblue; stroke:none" />
<polygon points="737.955811,101.547783 
	762.414124,101.547783 762.414124,126.345345 737.955811,126.345345 "
	style="fill:none; stroke-width:2.948412; stroke-linecap:round; stroke-linejoin:round; stroke-dasharray:none; stroke:gainsboro" />
<polygon points="713.669861,75.877060 
	713.669861,100.500000 737.955811,100.500000 737.955811,75.877060 713.669861,75.877060 "
	style="fill-opacity:1.0; fill-rule:evenodd; fill:steelblue; stroke:none" />
<polygon points="713.669861,75.877060 
	737.955811,75.877060 737.955811,100.500000 713.669861,100.500000 "
	style="fill:none; stroke-width:2.948412; stroke-linecap:round; stroke-linejoin:round; stroke-dasharray:none; stroke:gainsboro" />
<polygon points="664.753296,125.297554 
	664.753296,150.095123 689.211548,150.095123 689.211548,125.297554 664.753296,125.297554 "
	style="fill-opacity:1.0; fill-rule:evenodd; fill:steelblue; stroke:none" />
<polygon points="664.753296,125.297554 
	689.211548,125.297554 689.211548,150.095123 664.753296,150.095123 "
	style="fill:none; stroke-width:2.948412; stroke-linecap:round; stroke-linejoin:round; stroke-dasharray:none; stroke:gainsboro" />
<polygon points="737.955811,26.281929 
	737.955811,51.079494 762.414124,51.079494 762.414124,26.281929 737.955811,26.281929 "
	style="fill-opacity:1.0; fill-rule:evenodd; fill:steelblue; stroke:none" />
<polygon points="737.955811,26.281929 
	762.414124,26.281929 762.414124,51.079494 737.955811,51.079494 "
	style="fill:none; stroke-width:2.948412; stroke-linecap:round; stroke-linejoin:round; stroke-dasharray:none; stroke:gainsboro" />
<polygon points="119.437370,51.079494 
	119.437370,75.877060 143.895630,75.877060 143.895630,51.079494 119.437370,51.079494 "
	style="fill-opacity:1.0; fill-rule:evenodd; fill:steelblue; stroke:none" />
<polygon points="119.437370,51.079494 
	143.895630,51.079494 143.895630,75.877060 119.437370,75.877060 "
	style="fill:none; stroke-width:2.948412; stroke-linecap:round; stroke-linejoin:round; stroke-dasharray:none; stroke:gainsboro" />
<polygon points="119.437370,75.877060 
	119.437370,100.500000 143.895630,100.500000 143.895630,75.877060 119.437370,75.877060 "
	style="fill-opacity:1.0; fill-rule:evenodd; fill:steelblue; stroke:none" />
<polygon points="119.437370,75.877060 
	143.895630,75.877060 143.895630,100.500000 119.437370,100.500000 "
	style="fill:none; stroke-width:2.948412; stroke-linecap:round; stroke-linejoin:round; stroke-dasharray:none; stroke:gainsboro" />
<polygon points="143.895630,125.297554 
	143.895630,150.095123 168.353897,150.095123 168.353897,125.297554 143.895630,125.297554 "
	style="fill-opacity:1.0; fill-rule:evenodd; fill:steelblue; stroke:none" />
<polygon points="143.895630,125.297554 
	168.353897,125.297554 168.353897,150.095123 143.895630,150.095123 "
	style="fill:none; stroke-width:2.948412; stroke-linecap:round; stroke-linejoin:round; stroke-dasharray:none; stroke:gainsboro" />
<polygon points="168.353897,125.297554 
	168.353897,150.095123 192.812164,150.095123 192.812164,125.297554 168.353897,125.297554 "
	style="fill-opacity:1.0; fill-rule:evenodd; fill:steelblue; stroke:none" />
<polygon points="168.353897,125.297554 
	192.812164,125.297554 192.812164,150.095123 168.353897,150.095123 "
	style="fill:none; stroke-width:2.948412; stroke-linecap:round; stroke-linejoin:round; stroke-dasharray:none; stroke:gainsboro" />
<polygon points="192.812164,51.079494 
	192.812164,75.877060 217.098175,75.877060 217.098175,51.079494 192.812164,51.079494 "
	style="fill-opacity:1.0; fill-rule:evenodd; fill:steelblue; stroke:none" />
<polygon points="192.812164,51.079494 
	217.098175,51.079494 217.098175,75.877060 192.812164,75.877060 "
	style="fill:none; stroke-width:2.948412; stroke-linecap:round; stroke-linejoin:round; stroke-dasharray:none; stroke:gainsboro" />
<polygon points="192.812164,77.798004 
	192.812164,102.595566 217.098175,102.595566 217.098175,77.798004 192.812164,77.798004 "
	style="fill-opacity:1.0; fill-rule:evenodd; fill:steelblue; stroke:none" />
<polygon points="192.812164,77.798004 
	217.098175,77.798004 217.098175,102.595566 192.812164,102.595566 "
	style="fill:none; stroke-width:2.948412; stroke-linecap:round; stroke-linejoin:round; stroke-dasharray:none; stroke:gainsboro" />
<polygon points="192.812164,125.297554 
	192.812164,150.095123 217.098175,150.095123 217.098175,125.297554 192.812164,125.297554 "
	style="fill-opacity:1.0; fill-rule:evenodd; fill:steelblue; stroke:none" />
<polygon points="192.812164,125.297554 
	217.098175,125.297554 217.098175,150.095123 192.812164,150.095123 "
	style="fill:none; stroke-width:2.948412; stroke-linecap:round; stroke-linejoin:round; stroke-dasharray:none; stroke:gainsboro" />
<polygon points="192.812164,150.095123 
	192.812164,174.892700 217.270432,174.892700 217.270432,150.095123 192.812164,150.095123 "
	style="fill-opacity:1.0; fill-rule:evenodd; fill:steelblue; stroke:none" />
<polygon points="192.812164,150.095123 
	217.270432,150.095123 217.270432,174.892700 192.812164,174.892700 "
	style="fill:none; stroke-width:2.948412; stroke-linecap:round; stroke-linejoin:round; stroke-dasharray:none; stroke:gainsboro" />
<polygon points="192.812164,174.892700 
	192.812164,199.515640 217.270432,199.515640 217.270432,174.892700 192.812164,174.892700 "
	style="fill-opacity:1.0; fill-rule:evenodd; fill:steelblue; stroke:none" />
<polygon points="192.812164,174.892700 
	217.270432,174.892700 217.270432,199.515640 192.812164,199.515640 "
	style="fill:none; stroke-width:2.948412; stroke-linecap:round; stroke-linejoin:round; stroke-dasharray:none; stroke:gainsboro" />
<polygon points="119.437370,100.500000 
	119.437370,125.297554 143.895630,125.297554 143.895630,100.500000 119.437370,100.500000 "
	style="fill-opacity:1.0; fill-rule:evenodd; fill:steelblue; stroke:none" />
<polygon points="119.437370,100.500000 
	143.895630,100.500000 143.895630,125.297554 119.437370,125.297554 "
	style="fill:none; stroke-width:2.948412; stroke-linecap:round; stroke-linejoin:round; stroke-dasharray:none; stroke:gainsboro" />
<polygon points="192.812164,102.595566 
	192.812164,127.218498 217.098175,127.218498 217.098175,102.595566 192.812164,102.595566 "
	style="fill-opacity:1.0; fill-rule:evenodd; fill:steelblue; stroke:none" />
<polygon points="192.812164,102.595566 
	217.098175,102.595566 217.098175,127.218498 192.812164,127.218498 "
	style="fill:none; stroke-width:2.948412; stroke-linecap:round; stroke-linejoin:round; stroke-dasharray:none; stroke:gainsboro" />
<polygon points="119.437370,125.297554 
	119.437370,150.095123 143.895630,150.095123 143.895630,125.297554 119.437370,125.297554 "
	style="fill-opacity:1.0; fill-rule:evenodd; fill:steelblue; stroke:none" />
<polygon points="119.437370,125.297554 
	143.895630,125.297554 143.895630,150.095123 119.437370,150.095123 "
	style="fill:none; stroke-width:2.948412; stroke-linecap:round; stroke-linejoin:round; stroke-dasharray:none; stroke:gainsboro" />
<polygon points="5.585879,1.484361 
	5.585879,26.281929 30.044142,26.281929 30.044142,1.484361 5.585879,1.484361 "
	style="fill-opacity:1.0; fill-rule:evenodd; fill:steelblue; stroke:none" />
<polygon points="5.585879,1.484361 
	30.044142,1.484361 30.044142,26.281929 5.585879,26.281929 "
	style="fill:none; stroke-width:2.948412; stroke-linecap:round; stroke-linejoin:round; stroke-dasharray:none; stroke:gainsboro" />
<polygon points="5.585879,26.281929 
	5.585879,51.079494 30.044142,51.079494 30.044142,26.281929 5.585879,26.281929 "
	style="fill-opacity:1.0; fill-rule:evenodd; fill:steelblue; stroke:none" />
<polygon points="5.585879,26.281929 
	30.044142,26.281929 30.044142,51.079494 5.585879,51.079494 "
	style="fill:none; stroke-width:2.948412; stroke-linecap:round; stroke-linejoin:round; stroke-dasharray:none; stroke:gainsboro" />
<polygon points="5.585879,51.079494 
	5.585879,75.877060 30.044142,75.877060 30.044142,51.079494 5.585879,51.079494 "
	style="fill-opacity:1.0; fill-rule:evenodd; fill:steelblue; stroke:none" />
<polygon points="5.585879,51.079494 
	30.044142,51.079494 30.044142,75.877060 5.585879,75.877060 "
	style="fill:none; stroke-width:2.948412; stroke-linecap:round; stroke-linejoin:round; stroke-dasharray:none; stroke:gainsboro" />
<polygon points="5.585879,75.877060 
	5.585879,100.500000 30.044142,100.500000 30.044142,75.877060 5.585879,75.877060 "
	style="fill-opacity:1.0; fill-rule:evenodd; fill:steelblue; stroke:none" />
<polygon points="5.585879,75.877060 
	30.044142,75.877060 30.044142,100.500000 5.585879,100.500000 "
	style="fill:none; stroke-width:2.948412; stroke-linecap:round; stroke-linejoin:round; stroke-dasharray:none; stroke:gainsboro" />
<polygon points="5.585879,125.297554 
	5.585879,150.095123 30.044142,150.095123 30.044142,125.297554 5.585879,125.297554 "
	style="fill-opacity:1.0; fill-rule:evenodd; fill:steelblue; stroke:none" />
<polygon points="5.585879,125.297554 
	30.044142,125.297554 30.044142,150.095123 5.585879,150.095123 "
	style="fill:none; stroke-width:2.948412; stroke-linecap:round; stroke-linejoin:round; stroke-dasharray:none; stroke:gainsboro" />
<polygon points="30.044142,1.484361 
	30.044142,26.281929 54.330166,26.281929 54.330166,1.484361 30.044142,1.484361 "
	style="fill-opacity:1.0; fill-rule:evenodd; fill:steelblue; stroke:none" />
<polygon points="30.044142,1.484361 
	54.330166,1.484361 54.330166,26.281929 30.044142,26.281929 "
	style="fill:none; stroke-width:2.948412; stroke-linecap:round; stroke-linejoin:round; stroke-dasharray:none; stroke:gainsboro" />
<polygon points="54.330166,1.484361 
	54.330166,26.281929 78.788429,26.281929 78.788429,1.484361 54.330166,1.484361 "
	style="fill-opacity:1.0; fill-rule:evenodd; fill:steelblue; stroke:none" />
<polygon points="54.330166,1.484361 
	78.788429,1.484361 78.788429,26.281929 54.330166,26.281929 "
	style="fill:none; stroke-width:2.948412; stroke-linecap:round; stroke-linejoin:round; stroke-dasharray:none; stroke:gainsboro" />
<polygon points="78.788429,26.281929 
	78.788429,51.079494 103.246689,51.079494 103.246689,26.281929 78.788429,26.281929 "
	style="fill-opacity:1.0; fill-rule:evenodd; fill:steelblue; stroke:none" />
<polygon points="78.788429,26.281929 
	103.246689,26.281929 103.246689,51.079494 78.788429,51.079494 "
	style="fill:none; stroke-width:2.948412; stroke-linecap:round; stroke-linejoin:round; stroke-dasharray:none; stroke:gainsboro" />
<polygon points="78.788429,51.079494 
	78.788429,75.877060 103.246689,75.877060 103.246689,51.079494 78.788429,51.079494 "
	style="fill-opacity:1.0; fill-rule:evenodd; fill:steelblue; stroke:none" />
<polygon points="78.788429,51.079494 
	103.246689,51.079494 103.246689,75.877060 78.788429,75.877060 "
	style="fill:none; stroke-width:2.948412; stroke-linecap:round; stroke-linejoin:round; stroke-dasharray:none; stroke:gainsboro" />
<polygon points="30.044142,75.877060 
	30.044142,100.500000 54.330166,100.500000 54.330166,75.877060 30.044142,75.877060 "
	style="fill-opacity:1.0; fill-rule:evenodd; fill:steelblue; stroke:none" />
<polygon points="30.044142,75.877060 
	54.330166,75.877060 54.330166,100.500000 30.044142,100.500000 "
	style="fill:none; stroke-width:2.948412; stroke-linecap:round; stroke-linejoin:round; stroke-dasharray:none; stroke:gainsboro" />
<polygon points="54.330166,75.877060 
	54.330166,100.500000 78.788429,100.500000 78.788429,75.877060 54.330166,75.877060 "
	style="fill-opacity:1.0; fill-rule:evenodd; fill:steelblue; stroke:none" />
<polygon points="54.330166,75.877060 
	78.788429,75.877060 78.788429,100.500000 54.330166,100.500000 "
	style="fill:none; stroke-width:2.948412; stroke-linecap:round; stroke-linejoin:round; stroke-dasharray:none; stroke:gainsboro" />
<polygon points="5.585879,100.500000 
	5.585879,125.297554 30.044142,125.297554 30.044142,100.500000 5.585879,100.500000 "
	style="fill-opacity:1.0; fill-rule:evenodd; fill:steelblue; stroke:none" />
<polygon points="5.585879,100.500000 
	30.044142,100.500000 30.044142,125.297554 5.585879,125.297554 "
	style="fill:none; stroke-width:2.948412; stroke-linecap:round; stroke-linejoin:round; stroke-dasharray:none; stroke:gainsboro" />
</svg>
