<?xml version="1.0" encoding="utf-8"?>
<!-- Generator: Adobe Illustrator 15.1.0, SVG Export Plug-In . SVG Version: 6.00 Build 0)  -->
<!DOCTYPE svg PUBLIC "-//W3C//DTD SVG 1.1//EN" "http://www.w3.org/Graphics/SVG/1.1/DTD/svg11.dtd">
<svg version="1.1" id="Layer_1" xmlns="http://www.w3.org/2000/svg" xmlns:xlink="http://www.w3.org/1999/xlink" x="0px" y="0px"
	 width="544px" height="149px" viewBox="0 0 544 149" enable-background="new 0 0 544 149" xml:space="preserve">
<g>
	<polygon opacity="0" fill-rule="evenodd" clip-rule="evenodd" fill="#FFFFFF" points="9,6 539.736,6 539.736,144.479 9,144.479 
		9,6 	"/>
	<polygon fill-rule="evenodd" clip-rule="evenodd" fill="#4F81BD" points="248.836,7.05 265.888,7.05 265.888,24.089 
		248.836,24.089 248.836,7.05 	"/>
	<polygon fill="none" stroke="#C6D9F1" stroke-width="2.0035" stroke-linejoin="round" stroke-miterlimit="10" points="
		248.836,7.05 265.888,7.05 265.888,24.089 248.836,24.089 248.836,7.05 	"/>
	<polygon fill-rule="evenodd" clip-rule="evenodd" fill="#4F81BD" points="248.836,24.089 265.888,24.089 265.888,41.128 
		248.836,41.128 248.836,24.089 	"/>
	<polygon fill="none" stroke="#C6D9F1" stroke-width="2.0035" stroke-linejoin="round" stroke-miterlimit="10" points="
		248.836,24.089 265.888,24.089 265.888,41.128 248.836,41.128 248.836,24.089 	"/>
	<polygon fill-rule="evenodd" clip-rule="evenodd" fill="#4F81BD" points="248.836,41.128 265.888,41.128 265.888,58.167 
		248.836,58.167 248.836,41.128 	"/>
	<polygon fill="none" stroke="#C6D9F1" stroke-width="2.0035" stroke-linejoin="round" stroke-miterlimit="10" points="
		248.836,41.128 265.888,41.128 265.888,58.167 248.836,58.167 248.836,41.128 	"/>
	<polygon fill-rule="evenodd" clip-rule="evenodd" fill="#4F81BD" points="248.836,58.167 265.888,58.167 265.888,75.207 
		248.836,75.207 248.836,58.167 	"/>
	<polygon fill="none" stroke="#C6D9F1" stroke-width="2.0035" stroke-linejoin="round" stroke-miterlimit="10" points="
		248.836,58.167 265.888,58.167 265.888,75.207 248.836,75.207 248.836,58.167 	"/>
	<polygon fill-rule="evenodd" clip-rule="evenodd" fill="#4F81BD" points="265.888,92.246 282.939,92.246 282.939,109.285 
		265.888,109.285 265.888,92.246 	"/>
	<polygon fill="none" stroke="#C6D9F1" stroke-width="2.0035" stroke-linejoin="round" stroke-miterlimit="10" points="
		265.888,92.246 282.939,92.246 282.939,109.285 265.888,109.285 265.888,92.246 	"/>
	<polygon fill-rule="evenodd" clip-rule="evenodd" fill="#4F81BD" points="282.939,92.246 299.99,92.246 299.99,109.285 
		282.939,109.285 282.939,92.246 	"/>
	<polygon fill="none" stroke="#C6D9F1" stroke-width="2.0035" stroke-linejoin="round" stroke-miterlimit="10" points="
		282.939,92.246 299.99,92.246 299.99,109.285 282.939,109.285 282.939,92.246 	"/>
	<polygon fill-rule="evenodd" clip-rule="evenodd" fill="#4F81BD" points="311.357,41.128 328.41,41.128 328.41,58.167 
		311.357,58.167 311.357,41.128 	"/>
	<polygon fill="none" stroke="#C6D9F1" stroke-width="2.0035" stroke-linejoin="round" stroke-miterlimit="10" points="
		311.357,41.128 328.41,41.128 328.41,58.167 311.357,58.167 311.357,41.128 	"/>
	<polygon fill-rule="evenodd" clip-rule="evenodd" fill="#4F81BD" points="311.357,58.167 328.41,58.167 328.41,75.207 
		311.357,75.207 311.357,58.167 	"/>
	<polygon fill="none" stroke="#C6D9F1" stroke-width="2.0035" stroke-linejoin="round" stroke-miterlimit="10" points="
		311.357,58.167 328.41,58.167 328.41,75.207 311.357,75.207 311.357,58.167 	"/>
	<polygon fill-rule="evenodd" clip-rule="evenodd" fill="#4F81BD" points="328.41,24.089 345.461,24.089 345.461,41.128 
		328.41,41.128 328.41,24.089 	"/>
	<polygon fill="none" stroke="#C6D9F1" stroke-width="2.0035" stroke-linejoin="round" stroke-miterlimit="10" points="
		328.41,24.089 345.461,24.089 345.461,41.128 328.41,41.128 328.41,24.089 	"/>
	<polygon fill-rule="evenodd" clip-rule="evenodd" fill="#4F81BD" points="345.461,24.089 362.512,24.089 362.512,41.128 
		345.461,41.128 345.461,24.089 	"/>
	<polygon fill="none" stroke="#C6D9F1" stroke-width="2.0035" stroke-linejoin="round" stroke-miterlimit="10" points="
		345.461,24.089 362.512,24.089 362.512,41.128 345.461,41.128 345.461,24.089 	"/>
	<polygon fill-rule="evenodd" clip-rule="evenodd" fill="#4F81BD" points="328.41,92.246 345.461,92.246 345.461,109.285 
		328.41,109.285 328.41,92.246 	"/>
	<polygon fill="none" stroke="#C6D9F1" stroke-width="2.0035" stroke-linejoin="round" stroke-miterlimit="10" points="
		328.41,92.246 345.461,92.246 345.461,109.285 328.41,109.285 328.41,92.246 	"/>
	<polygon fill-rule="evenodd" clip-rule="evenodd" fill="#4F81BD" points="345.461,92.246 362.512,92.246 362.512,109.285 
		345.461,109.285 345.461,92.246 	"/>
	<polygon fill="none" stroke="#C6D9F1" stroke-width="2.0035" stroke-linejoin="round" stroke-miterlimit="10" points="
		345.461,92.246 362.512,92.246 362.512,109.285 345.461,109.285 345.461,92.246 	"/>
	<polygon fill-rule="evenodd" clip-rule="evenodd" fill="#4F81BD" points="362.512,41.128 379.564,41.128 379.564,58.167 
		362.512,58.167 362.512,41.128 	"/>
	<polygon fill="none" stroke="#C6D9F1" stroke-width="2.0035" stroke-linejoin="round" stroke-miterlimit="10" points="
		362.512,41.128 379.564,41.128 379.564,58.167 362.512,58.167 362.512,41.128 	"/>
	<polygon fill-rule="evenodd" clip-rule="evenodd" fill="#4F81BD" points="362.512,59.528 379.564,59.528 379.564,76.567 
		362.512,76.567 362.512,59.528 	"/>
	<polygon fill="none" stroke="#C6D9F1" stroke-width="2.0035" stroke-linejoin="round" stroke-miterlimit="10" points="
		362.512,59.528 379.564,59.528 379.564,76.567 362.512,76.567 362.512,59.528 	"/>
	<polygon fill-rule="evenodd" clip-rule="evenodd" fill="#4F81BD" points="390.932,41.128 407.982,41.128 407.982,58.167 
		390.932,58.167 390.932,41.128 	"/>
	<polygon fill="none" stroke="#C6D9F1" stroke-width="2.0035" stroke-linejoin="round" stroke-miterlimit="10" points="
		390.932,41.128 407.982,41.128 407.982,58.167 390.932,58.167 390.932,41.128 	"/>
	<polygon fill-rule="evenodd" clip-rule="evenodd" fill="#4F81BD" points="390.932,58.167 407.982,58.167 407.982,75.207 
		390.932,75.207 390.932,58.167 	"/>
	<polygon fill="none" stroke="#C6D9F1" stroke-width="2.0035" stroke-linejoin="round" stroke-miterlimit="10" points="
		390.932,58.167 407.982,58.167 407.982,75.207 390.932,75.207 390.932,58.167 	"/>
	<polygon fill-rule="evenodd" clip-rule="evenodd" fill="#4F81BD" points="407.982,24.089 425.033,24.089 425.033,41.128 
		407.982,41.128 407.982,24.089 	"/>
	<polygon fill="none" stroke="#C6D9F1" stroke-width="2.0035" stroke-linejoin="round" stroke-miterlimit="10" points="
		407.982,24.089 425.033,24.089 425.033,41.128 407.982,41.128 407.982,24.089 	"/>
	<polygon fill-rule="evenodd" clip-rule="evenodd" fill="#4F81BD" points="425.033,24.089 442.086,24.089 442.086,41.128 
		425.033,41.128 425.033,24.089 	"/>
	<polygon fill="none" stroke="#C6D9F1" stroke-width="2.0035" stroke-linejoin="round" stroke-miterlimit="10" points="
		425.033,24.089 442.086,24.089 442.086,41.128 425.033,41.128 425.033,24.089 	"/>
	<polygon fill-rule="evenodd" clip-rule="evenodd" fill="#4F81BD" points="407.982,92.246 425.033,92.246 425.033,109.285 
		407.982,109.285 407.982,92.246 	"/>
	<polygon fill="none" stroke="#C6D9F1" stroke-width="2.0035" stroke-linejoin="round" stroke-miterlimit="10" points="
		407.982,92.246 425.033,92.246 425.033,109.285 407.982,109.285 407.982,92.246 	"/>
	<polygon fill-rule="evenodd" clip-rule="evenodd" fill="#4F81BD" points="425.033,92.246 442.086,92.246 442.086,109.285 
		425.033,109.285 425.033,92.246 	"/>
	<polygon fill="none" stroke="#C6D9F1" stroke-width="2.0035" stroke-linejoin="round" stroke-miterlimit="10" points="
		425.033,92.246 442.086,92.246 442.086,109.285 425.033,109.285 425.033,92.246 	"/>
	<polygon fill-rule="evenodd" clip-rule="evenodd" fill="#4F81BD" points="442.086,41.128 459.137,41.128 459.137,58.167 
		442.086,58.167 442.086,41.128 	"/>
	<polygon fill="none" stroke="#C6D9F1" stroke-width="2.0035" stroke-linejoin="round" stroke-miterlimit="10" points="
		442.086,41.128 459.137,41.128 459.137,58.167 442.086,58.167 442.086,41.128 	"/>
	<polygon fill-rule="evenodd" clip-rule="evenodd" fill="#4F81BD" points="442.086,59.528 459.137,59.528 459.137,76.567 
		442.086,76.567 442.086,59.528 	"/>
	<polygon fill="none" stroke="#C6D9F1" stroke-width="2.0035" stroke-linejoin="round" stroke-miterlimit="10" points="
		442.086,59.528 459.137,59.528 459.137,76.567 442.086,76.567 442.086,59.528 	"/>
	<polygon fill-rule="evenodd" clip-rule="evenodd" fill="#4F81BD" points="442.086,92.246 459.137,92.246 459.137,109.285 
		442.086,109.285 442.086,92.246 	"/>
	<polygon fill="none" stroke="#C6D9F1" stroke-width="2.0035" stroke-linejoin="round" stroke-miterlimit="10" points="
		442.086,92.246 459.137,92.246 459.137,109.285 442.086,109.285 442.086,92.246 	"/>
	<polygon fill-rule="evenodd" clip-rule="evenodd" fill="#4F81BD" points="442.086,109.285 459.137,109.285 459.137,126.324 
		442.086,126.324 442.086,109.285 	"/>
	<polygon fill="none" stroke="#C6D9F1" stroke-width="2.0035" stroke-linejoin="round" stroke-miterlimit="10" points="
		442.086,109.285 459.137,109.285 459.137,126.324 442.086,126.324 442.086,109.285 	"/>
	<polygon fill-rule="evenodd" clip-rule="evenodd" fill="#4F81BD" points="442.086,126.324 459.137,126.324 459.137,143.363 
		442.086,143.363 442.086,126.324 	"/>
	<polygon fill="none" stroke="#C6D9F1" stroke-width="2.0035" stroke-linejoin="round" stroke-miterlimit="10" points="
		442.086,126.324 459.137,126.324 459.137,143.363 442.086,143.363 442.086,126.324 	"/>
	<polygon fill-rule="evenodd" clip-rule="evenodd" fill="#4F81BD" points="169.263,8.411 186.314,8.411 186.314,25.45 
		169.263,25.45 169.263,8.411 	"/>
	<polygon fill="none" stroke="#C6D9F1" stroke-width="2.0035" stroke-linejoin="round" stroke-miterlimit="10" points="
		169.263,8.411 186.314,8.411 186.314,25.45 169.263,25.45 169.263,8.411 	"/>
	<polygon fill-rule="evenodd" clip-rule="evenodd" fill="#4F81BD" points="169.263,25.45 186.314,25.45 186.314,42.489 
		169.263,42.489 169.263,25.45 	"/>
	<polygon fill="none" stroke="#C6D9F1" stroke-width="2.0035" stroke-linejoin="round" stroke-miterlimit="10" points="
		169.263,25.45 186.314,25.45 186.314,42.489 169.263,42.489 169.263,25.45 	"/>
	<polygon fill-rule="evenodd" clip-rule="evenodd" fill="#4F81BD" points="169.263,42.489 186.314,42.489 186.314,59.528 
		169.263,59.528 169.263,42.489 	"/>
	<polygon fill="none" stroke="#C6D9F1" stroke-width="2.0035" stroke-linejoin="round" stroke-miterlimit="10" points="
		169.263,42.489 186.314,42.489 186.314,59.528 169.263,59.528 169.263,42.489 	"/>
	<polygon fill-rule="evenodd" clip-rule="evenodd" fill="#4F81BD" points="169.263,59.528 186.314,59.528 186.314,76.567 
		169.263,76.567 169.263,59.528 	"/>
	<polygon fill="none" stroke="#C6D9F1" stroke-width="2.0035" stroke-linejoin="round" stroke-miterlimit="10" points="
		169.263,59.528 186.314,59.528 186.314,76.567 169.263,76.567 169.263,59.528 	"/>
	<polygon fill-rule="evenodd" clip-rule="evenodd" fill="#4F81BD" points="169.263,93.606 186.314,93.606 186.314,110.646 
		169.263,110.646 169.263,93.606 	"/>
	<polygon fill="none" stroke="#C6D9F1" stroke-width="2.0035" stroke-linejoin="round" stroke-miterlimit="10" points="
		169.263,93.606 186.314,93.606 186.314,110.646 169.263,110.646 169.263,93.606 	"/>
	<polygon fill-rule="evenodd" clip-rule="evenodd" fill="#4F81BD" points="186.314,8.411 203.366,8.411 203.366,25.45 
		186.314,25.45 186.314,8.411 	"/>
	<polygon fill="none" stroke="#C6D9F1" stroke-width="2.0035" stroke-linejoin="round" stroke-miterlimit="10" points="
		186.314,8.411 203.366,8.411 203.366,25.45 186.314,25.45 186.314,8.411 	"/>
	<polygon fill-rule="evenodd" clip-rule="evenodd" fill="#4F81BD" points="203.366,8.411 220.417,8.411 220.417,25.45 
		203.366,25.45 203.366,8.411 	"/>
	<polygon fill="none" stroke="#C6D9F1" stroke-width="2.0035" stroke-linejoin="round" stroke-miterlimit="10" points="
		203.366,8.411 220.417,8.411 220.417,25.45 203.366,25.45 203.366,8.411 	"/>
	<polygon fill-rule="evenodd" clip-rule="evenodd" fill="#4F81BD" points="186.314,93.606 203.366,93.606 203.366,110.646 
		186.314,110.646 186.314,93.606 	"/>
	<polygon fill="none" stroke="#C6D9F1" stroke-width="2.0035" stroke-linejoin="round" stroke-miterlimit="10" points="
		186.314,93.606 203.366,93.606 203.366,110.646 186.314,110.646 186.314,93.606 	"/>
	<polygon fill-rule="evenodd" clip-rule="evenodd" fill="#4F81BD" points="203.366,93.606 220.417,93.606 220.417,110.646 
		203.366,110.646 203.366,93.606 	"/>
	<polygon fill="none" stroke="#C6D9F1" stroke-width="2.0035" stroke-linejoin="round" stroke-miterlimit="10" points="
		203.366,93.606 220.417,93.606 220.417,110.646 203.366,110.646 203.366,93.606 	"/>
	<polygon fill-rule="evenodd" clip-rule="evenodd" fill="#4F81BD" points="220.417,25.45 237.469,25.45 237.469,42.489 
		220.417,42.489 220.417,25.45 	"/>
	<polygon fill="none" stroke="#C6D9F1" stroke-width="2.0035" stroke-linejoin="round" stroke-miterlimit="10" points="
		220.417,25.45 237.469,25.45 237.469,42.489 220.417,42.489 220.417,25.45 	"/>
	<polygon fill-rule="evenodd" clip-rule="evenodd" fill="#4F81BD" points="220.417,60.889 237.469,60.889 237.469,77.929 
		220.417,77.929 220.417,60.889 	"/>
	<polygon fill="none" stroke="#C6D9F1" stroke-width="2.0035" stroke-linejoin="round" stroke-miterlimit="10" points="
		220.417,60.889 237.469,60.889 237.469,77.929 220.417,77.929 220.417,60.889 	"/>
	<polygon fill-rule="evenodd" clip-rule="evenodd" fill="#4F81BD" points="186.314,42.489 203.366,42.489 203.366,59.528 
		186.314,59.528 186.314,42.489 	"/>
	<polygon fill="none" stroke="#C6D9F1" stroke-width="2.0035" stroke-linejoin="round" stroke-miterlimit="10" points="
		186.314,42.489 203.366,42.489 203.366,59.528 186.314,59.528 186.314,42.489 	"/>
	<polygon fill-rule="evenodd" clip-rule="evenodd" fill="#4F81BD" points="203.366,42.489 220.417,42.489 220.417,59.528 
		203.366,59.528 203.366,42.489 	"/>
	<polygon fill="none" stroke="#C6D9F1" stroke-width="2.0035" stroke-linejoin="round" stroke-miterlimit="10" points="
		203.366,42.489 220.417,42.489 220.417,59.528 203.366,59.528 203.366,42.489 	"/>
	<polygon fill-rule="evenodd" clip-rule="evenodd" fill="#4F81BD" points="248.836,75.207 265.888,75.207 265.888,92.246 
		248.836,92.246 248.836,75.207 	"/>
	<polygon fill="none" stroke="#C6D9F1" stroke-width="2.0035" stroke-linejoin="round" stroke-miterlimit="10" points="
		248.836,75.207 265.888,75.207 265.888,92.246 248.836,92.246 248.836,75.207 	"/>
	<polygon fill-rule="evenodd" clip-rule="evenodd" fill="#4F81BD" points="311.357,75.207 328.41,75.207 328.41,92.246 
		311.357,92.246 311.357,75.207 	"/>
	<polygon fill="none" stroke="#C6D9F1" stroke-width="2.0035" stroke-linejoin="round" stroke-miterlimit="10" points="
		311.357,75.207 328.41,75.207 328.41,92.246 311.357,92.246 311.357,75.207 	"/>
	<polygon fill-rule="evenodd" clip-rule="evenodd" fill="#4F81BD" points="362.512,76.567 379.564,76.567 379.564,93.606 
		362.512,93.606 362.512,76.567 	"/>
	<polygon fill="none" stroke="#C6D9F1" stroke-width="2.0035" stroke-linejoin="round" stroke-miterlimit="10" points="
		362.512,76.567 379.564,76.567 379.564,93.606 362.512,93.606 362.512,76.567 	"/>
	<polygon fill-rule="evenodd" clip-rule="evenodd" fill="#4F81BD" points="390.932,75.207 407.982,75.207 407.982,92.246 
		390.932,92.246 390.932,75.207 	"/>
	<polygon fill="none" stroke="#C6D9F1" stroke-width="2.0035" stroke-linejoin="round" stroke-miterlimit="10" points="
		390.932,75.207 407.982,75.207 407.982,92.246 390.932,92.246 390.932,75.207 	"/>
	<polygon fill-rule="evenodd" clip-rule="evenodd" fill="#4F81BD" points="442.086,76.567 459.137,76.567 459.137,93.606 
		442.086,93.606 442.086,76.567 	"/>
	<polygon fill="none" stroke="#C6D9F1" stroke-width="2.0035" stroke-linejoin="round" stroke-miterlimit="10" points="
		442.086,76.567 459.137,76.567 459.137,93.606 442.086,93.606 442.086,76.567 	"/>
	<polygon fill-rule="evenodd" clip-rule="evenodd" fill="#4F81BD" points="169.263,76.567 186.314,76.567 186.314,93.606 
		169.263,93.606 169.263,76.567 	"/>
	<polygon fill="none" stroke="#C6D9F1" stroke-width="2.0035" stroke-linejoin="round" stroke-miterlimit="10" points="
		169.263,76.567 186.314,76.567 186.314,93.606 169.263,93.606 169.263,76.567 	"/>
	<polygon fill-rule="evenodd" clip-rule="evenodd" fill="#4F81BD" points="220.417,77.928 237.469,77.928 237.469,94.968 
		220.417,94.968 220.417,77.928 	"/>
	<polygon fill="none" stroke="#C6D9F1" stroke-width="2.0035" stroke-linejoin="round" stroke-miterlimit="10" points="
		220.417,77.928 237.469,77.928 237.469,94.968 220.417,94.968 220.417,77.928 	"/>
	<polygon fill-rule="evenodd" clip-rule="evenodd" fill="#4F81BD" points="470.504,41.128 487.557,41.128 487.557,58.167 
		470.504,58.167 470.504,41.128 	"/>
	<polygon fill="none" stroke="#C6D9F1" stroke-width="2.0035" stroke-linejoin="round" stroke-miterlimit="10" points="
		470.504,41.128 487.557,41.128 487.557,58.167 470.504,58.167 470.504,41.128 	"/>
	<polygon fill-rule="evenodd" clip-rule="evenodd" fill="#4F81BD" points="487.557,58.167 504.607,58.167 504.607,75.207 
		487.557,75.207 487.557,58.167 	"/>
	<polygon fill="none" stroke="#C6D9F1" stroke-width="2.0035" stroke-linejoin="round" stroke-miterlimit="10" points="
		487.557,58.167 504.607,58.167 504.607,75.207 487.557,75.207 487.557,58.167 	"/>
	<polygon fill-rule="evenodd" clip-rule="evenodd" fill="#4F81BD" points="487.557,24.089 504.607,24.089 504.607,41.128 
		487.557,41.128 487.557,24.089 	"/>
	<polygon fill="none" stroke="#C6D9F1" stroke-width="2.0035" stroke-linejoin="round" stroke-miterlimit="10" points="
		487.557,24.089 504.607,24.089 504.607,41.128 487.557,41.128 487.557,24.089 	"/>
	<polygon fill-rule="evenodd" clip-rule="evenodd" fill="#4F81BD" points="504.607,24.089 521.658,24.089 521.658,41.128 
		504.607,41.128 504.607,24.089 	"/>
	<polygon fill="none" stroke="#C6D9F1" stroke-width="2.0035" stroke-linejoin="round" stroke-miterlimit="10" points="
		504.607,24.089 521.658,24.089 521.658,41.128 504.607,41.128 504.607,24.089 	"/>
	<polygon fill-rule="evenodd" clip-rule="evenodd" fill="#4F81BD" points="487.557,92.246 504.607,92.246 504.607,109.285 
		487.557,109.285 487.557,92.246 	"/>
	<polygon fill="none" stroke="#C6D9F1" stroke-width="2.0035" stroke-linejoin="round" stroke-miterlimit="10" points="
		487.557,92.246 504.607,92.246 504.607,109.285 487.557,109.285 487.557,92.246 	"/>
	<polygon fill-rule="evenodd" clip-rule="evenodd" fill="#4F81BD" points="504.607,92.246 521.658,92.246 521.658,109.285 
		504.607,109.285 504.607,92.246 	"/>
	<polygon fill="none" stroke="#C6D9F1" stroke-width="2.0035" stroke-linejoin="round" stroke-miterlimit="10" points="
		504.607,92.246 521.658,92.246 521.658,109.285 504.607,109.285 504.607,92.246 	"/>
	<polygon fill-rule="evenodd" clip-rule="evenodd" fill="#4F81BD" points="521.658,75.887 538.711,75.887 538.711,92.927 
		521.658,92.927 521.658,75.887 	"/>
	<polygon fill="none" stroke="#C6D9F1" stroke-width="2.0035" stroke-linejoin="round" stroke-miterlimit="10" points="
		521.658,75.887 538.711,75.887 538.711,92.927 521.658,92.927 521.658,75.887 	"/>
	<polygon fill-rule="evenodd" clip-rule="evenodd" fill="#4F81BD" points="504.607,58.167 521.658,58.167 521.658,75.207 
		504.607,75.207 504.607,58.167 	"/>
	<polygon fill="none" stroke="#C6D9F1" stroke-width="2.0035" stroke-linejoin="round" stroke-miterlimit="10" points="
		504.607,58.167 521.658,58.167 521.658,75.207 504.607,75.207 504.607,58.167 	"/>
	<polygon fill-rule="evenodd" clip-rule="evenodd" fill="#4F81BD" points="470.504,92.246 487.557,92.246 487.557,109.285 
		470.504,109.285 470.504,92.246 	"/>
	<polygon fill="none" stroke="#C6D9F1" stroke-width="2.0035" stroke-linejoin="round" stroke-miterlimit="10" points="
		470.504,92.246 487.557,92.246 487.557,109.285 470.504,109.285 470.504,92.246 	"/>
	<polygon fill-rule="evenodd" clip-rule="evenodd" fill="#4F81BD" points="521.658,24.089 538.711,24.089 538.711,41.128 
		521.658,41.128 521.658,24.089 	"/>
	<polygon fill="none" stroke="#C6D9F1" stroke-width="2.0035" stroke-linejoin="round" stroke-miterlimit="10" points="
		521.658,24.089 538.711,24.089 538.711,41.128 521.658,41.128 521.658,24.089 	"/>
	<polygon fill-rule="evenodd" clip-rule="evenodd" fill="#4F81BD" points="89.69,41.128 106.741,41.128 106.741,58.167 
		89.69,58.167 89.69,41.128 	"/>
	<polygon fill="none" stroke="#C6D9F1" stroke-width="2.0035" stroke-linejoin="round" stroke-miterlimit="10" points="
		89.69,41.128 106.741,41.128 106.741,58.167 89.69,58.167 89.69,41.128 	"/>
	<polygon fill-rule="evenodd" clip-rule="evenodd" fill="#4F81BD" points="89.69,58.167 106.741,58.167 106.741,75.207 
		89.69,75.207 89.69,58.167 	"/>
	<polygon fill="none" stroke="#C6D9F1" stroke-width="2.0035" stroke-linejoin="round" stroke-miterlimit="10" points="
		89.69,58.167 106.741,58.167 106.741,75.207 89.69,75.207 89.69,58.167 	"/>
	<polygon fill-rule="evenodd" clip-rule="evenodd" fill="#4F81BD" points="106.741,92.246 123.792,92.246 123.792,109.285 
		106.741,109.285 106.741,92.246 	"/>
	<polygon fill="none" stroke="#C6D9F1" stroke-width="2.0035" stroke-linejoin="round" stroke-miterlimit="10" points="
		106.741,92.246 123.792,92.246 123.792,109.285 106.741,109.285 106.741,92.246 	"/>
	<polygon fill-rule="evenodd" clip-rule="evenodd" fill="#4F81BD" points="123.792,92.246 140.844,92.246 140.844,109.285 
		123.792,109.285 123.792,92.246 	"/>
	<polygon fill="none" stroke="#C6D9F1" stroke-width="2.0035" stroke-linejoin="round" stroke-miterlimit="10" points="
		123.792,92.246 140.844,92.246 140.844,109.285 123.792,109.285 123.792,92.246 	"/>
	<polygon fill-rule="evenodd" clip-rule="evenodd" fill="#4F81BD" points="140.844,41.128 157.896,41.128 157.896,58.167 
		140.844,58.167 140.844,41.128 	"/>
	<polygon fill="none" stroke="#C6D9F1" stroke-width="2.0035" stroke-linejoin="round" stroke-miterlimit="10" points="
		140.844,41.128 157.896,41.128 157.896,58.167 140.844,58.167 140.844,41.128 	"/>
	<polygon fill-rule="evenodd" clip-rule="evenodd" fill="#4F81BD" points="140.844,59.528 157.896,59.528 157.896,76.567 
		140.844,76.567 140.844,59.528 	"/>
	<polygon fill="none" stroke="#C6D9F1" stroke-width="2.0035" stroke-linejoin="round" stroke-miterlimit="10" points="
		140.844,59.528 157.896,59.528 157.896,76.567 140.844,76.567 140.844,59.528 	"/>
	<polygon fill-rule="evenodd" clip-rule="evenodd" fill="#4F81BD" points="140.844,92.246 157.896,92.246 157.896,109.285 
		140.844,109.285 140.844,92.246 	"/>
	<polygon fill="none" stroke="#C6D9F1" stroke-width="2.0035" stroke-linejoin="round" stroke-miterlimit="10" points="
		140.844,92.246 157.896,92.246 157.896,109.285 140.844,109.285 140.844,92.246 	"/>
	<polygon fill-rule="evenodd" clip-rule="evenodd" fill="#4F81BD" points="140.844,109.285 157.896,109.285 157.896,126.324 
		140.844,126.324 140.844,109.285 	"/>
	<polygon fill="none" stroke="#C6D9F1" stroke-width="2.0035" stroke-linejoin="round" stroke-miterlimit="10" points="
		140.844,109.285 157.896,109.285 157.896,126.324 140.844,126.324 140.844,109.285 	"/>
	<polygon fill-rule="evenodd" clip-rule="evenodd" fill="#4F81BD" points="140.844,126.324 157.896,126.324 157.896,143.363 
		140.844,143.363 140.844,126.324 	"/>
	<polygon fill="none" stroke="#C6D9F1" stroke-width="2.0035" stroke-linejoin="round" stroke-miterlimit="10" points="
		140.844,126.324 157.896,126.324 157.896,143.363 140.844,143.363 140.844,126.324 	"/>
	<polygon fill-rule="evenodd" clip-rule="evenodd" fill="#4F81BD" points="89.69,75.207 106.741,75.207 106.741,92.246 
		89.69,92.246 89.69,75.207 	"/>
	<polygon fill="none" stroke="#C6D9F1" stroke-width="2.0035" stroke-linejoin="round" stroke-miterlimit="10" points="
		89.69,75.207 106.741,75.207 106.741,92.246 89.69,92.246 89.69,75.207 	"/>
	<polygon fill-rule="evenodd" clip-rule="evenodd" fill="#4F81BD" points="140.844,76.567 157.896,76.567 157.896,93.606 
		140.844,93.606 140.844,76.567 	"/>
	<polygon fill="none" stroke="#C6D9F1" stroke-width="2.0035" stroke-linejoin="round" stroke-miterlimit="10" points="
		140.844,76.567 157.896,76.567 157.896,93.606 140.844,93.606 140.844,76.567 	"/>
	<polygon fill-rule="evenodd" clip-rule="evenodd" fill="#4F81BD" points="89.69,92.246 106.741,92.246 106.741,109.285 
		89.69,109.285 89.69,92.246 	"/>
	<polygon fill="none" stroke="#C6D9F1" stroke-width="2.0035" stroke-linejoin="round" stroke-miterlimit="10" points="
		89.69,92.246 106.741,92.246 106.741,109.285 89.69,109.285 89.69,92.246 	"/>
	<polygon fill-rule="evenodd" clip-rule="evenodd" fill="#4F81BD" points="10.117,7.05 27.168,7.05 27.168,24.089 10.117,24.089 
		10.117,7.05 	"/>
	<polygon fill="none" stroke="#C6D9F1" stroke-width="2.0035" stroke-linejoin="round" stroke-miterlimit="10" points="10.117,7.05 
		27.168,7.05 27.168,24.089 10.117,24.089 10.117,7.05 	"/>
	<polygon fill-rule="evenodd" clip-rule="evenodd" fill="#4F81BD" points="10.117,24.089 27.168,24.089 27.168,41.128 
		10.117,41.128 10.117,24.089 	"/>
	<polygon fill="none" stroke="#C6D9F1" stroke-width="2.0035" stroke-linejoin="round" stroke-miterlimit="10" points="
		10.117,24.089 27.168,24.089 27.168,41.128 10.117,41.128 10.117,24.089 	"/>
	<polygon fill-rule="evenodd" clip-rule="evenodd" fill="#4F81BD" points="10.117,41.128 27.168,41.128 27.168,58.167 
		10.117,58.167 10.117,41.128 	"/>
	<polygon fill="none" stroke="#C6D9F1" stroke-width="2.0035" stroke-linejoin="round" stroke-miterlimit="10" points="
		10.117,41.128 27.168,41.128 27.168,58.167 10.117,58.167 10.117,41.128 	"/>
	<polygon fill-rule="evenodd" clip-rule="evenodd" fill="#4F81BD" points="10.117,58.167 27.168,58.167 27.168,75.207 
		10.117,75.207 10.117,58.167 	"/>
	<polygon fill="none" stroke="#C6D9F1" stroke-width="2.0035" stroke-linejoin="round" stroke-miterlimit="10" points="
		10.117,58.167 27.168,58.167 27.168,75.207 10.117,75.207 10.117,58.167 	"/>
	<polygon fill-rule="evenodd" clip-rule="evenodd" fill="#4F81BD" points="10.117,92.246 27.168,92.246 27.168,109.285 
		10.117,109.285 10.117,92.246 	"/>
	<polygon fill="none" stroke="#C6D9F1" stroke-width="2.0035" stroke-linejoin="round" stroke-miterlimit="10" points="
		10.117,92.246 27.168,92.246 27.168,109.285 10.117,109.285 10.117,92.246 	"/>
	<polygon fill-rule="evenodd" clip-rule="evenodd" fill="#4F81BD" points="27.168,7.05 44.219,7.05 44.219,24.089 27.168,24.089 
		27.168,7.05 	"/>
	<polygon fill="none" stroke="#C6D9F1" stroke-width="2.0035" stroke-linejoin="round" stroke-miterlimit="10" points="27.168,7.05 
		44.219,7.05 44.219,24.089 27.168,24.089 27.168,7.05 	"/>
	<polygon fill-rule="evenodd" clip-rule="evenodd" fill="#4F81BD" points="44.219,7.05 61.271,7.05 61.271,24.089 44.219,24.089 
		44.219,7.05 	"/>
	<polygon fill="none" stroke="#C6D9F1" stroke-width="2.0035" stroke-linejoin="round" stroke-miterlimit="10" points="44.219,7.05 
		61.271,7.05 61.271,24.089 44.219,24.089 44.219,7.05 	"/>
	<polygon fill-rule="evenodd" clip-rule="evenodd" fill="#4F81BD" points="61.271,24.089 78.322,24.089 78.322,41.128 
		61.271,41.128 61.271,24.089 	"/>
	<polygon fill="none" stroke="#C6D9F1" stroke-width="2.0035" stroke-linejoin="round" stroke-miterlimit="10" points="
		61.271,24.089 78.322,24.089 78.322,41.128 61.271,41.128 61.271,24.089 	"/>
	<polygon fill-rule="evenodd" clip-rule="evenodd" fill="#4F81BD" points="61.271,41.128 78.322,41.128 78.322,58.167 
		61.271,58.167 61.271,41.128 	"/>
	<polygon fill="none" stroke="#C6D9F1" stroke-width="2.0035" stroke-linejoin="round" stroke-miterlimit="10" points="
		61.271,41.128 78.322,41.128 78.322,58.167 61.271,58.167 61.271,41.128 	"/>
	<polygon fill-rule="evenodd" clip-rule="evenodd" fill="#4F81BD" points="27.168,58.167 44.219,58.167 44.219,75.207 
		27.168,75.207 27.168,58.167 	"/>
	<polygon fill="none" stroke="#C6D9F1" stroke-width="2.0035" stroke-linejoin="round" stroke-miterlimit="10" points="
		27.168,58.167 44.219,58.167 44.219,75.207 27.168,75.207 27.168,58.167 	"/>
	<polygon fill-rule="evenodd" clip-rule="evenodd" fill="#4F81BD" points="44.219,58.167 61.271,58.167 61.271,75.207 
		44.219,75.207 44.219,58.167 	"/>
	<polygon fill="none" stroke="#C6D9F1" stroke-width="2.0035" stroke-linejoin="round" stroke-miterlimit="10" points="
		44.219,58.167 61.271,58.167 61.271,75.207 44.219,75.207 44.219,58.167 	"/>
	<polygon fill-rule="evenodd" clip-rule="evenodd" fill="#4F81BD" points="10.117,75.207 27.168,75.207 27.168,92.246 
		10.117,92.246 10.117,75.207 	"/>
	<polygon fill="none" stroke="#C6D9F1" stroke-width="2.0035" stroke-linejoin="round" stroke-miterlimit="10" points="
		10.117,75.207 27.168,75.207 27.168,92.246 10.117,92.246 10.117,75.207 	"/>
</g>
</svg>
